<svg xmlns="http://www.w3.org/2000/svg" viewBox="1520 20 213.728 50">
    <defs>
        <style>
            .cls-1{fill:#002b5b}.cls-1,.cls-2,.cls-3{fill-rule:evenodd}.cls-2{fill:#fff100}.cls-3{fill:#f5f5f5}
        </style>
    </defs>
    <g id="ncb-logo-white" transform="translate(1520 20)">
        <g id="Group_1" data-name="Group 1" transform="translate(0 .12)">
            <path id="Path_1" d="M92.813 30.066a10.184 10.184 0 0 0-5.6-8.048s5.135-2.318 5.327-10.241C92.085 3.407 85.948.158 80.375.158H39.789l-6.221 5.477v1.216l-3.061 1.721L23.693.157H6.909L0 5.733v44.3h16.39l7.11-5.572v-9.427l12.938 15H49.66l2.277-1.513v1.513h25.57a9.162 9.162 0 0 0 5.728-2.634l5.834-5.45s4.9-5.15 3.744-11.886zm-40.978-1.725v.607s-1.183 1.728-4.937 1.728-7.011-2.13-7.011-6.183c0 0-.3-5.069 6.122-5.069s6.121 4.252 6.121 5.78h3.456z" class="cls-1" data-name="Path 1" transform="translate(0 -.157)"/>
        </g>
        <path id="Path_2" d="M86.23 21.989a10.986 10.986 0 0 0 6.915-11.153A10.331 10.331 0 0 0 82.974 1.21h-39.7v3.847c-3.26.505-8.689 2.838-10.958 4.966L25.014 1H10v41.669h14.122V20.462l18.862 22.207h14.707v-4.246l.786-.012a17.241 17.241 0 0 0 12.473-5.273 16.658 16.658 0 0 0 4.468-9.631H59.873c-.357 4.7-4.64 8.414-9.883 8.414-5.476 0-9.914-4.052-9.914-9.033s4.438-9.034 9.914-9.034a9.9 9.9 0 0 1 9.332 6.006h16.17C74.65 11.729 66.1 7.086 58.724 5.544a.806.806 0 0 1-.619-.951.79.79 0 0 1 .929-.634c8.359 1.733 18.112 7.286 18.112 17.209a18.589 18.589 0 0 1-5.064 13.112A18.784 18.784 0 0 1 59.275 40v2.664h23.7s10.171.4 10.76-11.051c.495-5.472-4.473-9.293-7.5-9.628" class="cls-2" data-name="Path 2" transform="translate(-2.366 -.237)"/>
        <path id="Path_3" d="M130.517 34.344h2.2c.831 0 1.231.341 1.231.963 0 .817-.639 1.01-1.376 1.01h-2.059v-1.973zM127 38.84h6.472c2.015 0 3.994-1.1 3.994-3.22a2.611 2.611 0 0 0-1.979-2.641 2.18 2.18 0 0 0 1.4-2.078c0-1.084-.639-2.657-3.642-2.657H127v10.6zm3.517-8.073h1.851c.721 0 1.2.192 1.2.727 0 .683-.463.876-1.2.876h-1.851zm11.954 4.288l1.1-3.263h.035l1.022 3.263h-2.158zm-4.81 3.785h3.53l.515-1.514h3.626l.479 1.514h3.641l-4.154-10.6h-3.436l-4.2 10.6zm12.689 0h3.324v-5.786h.031l3.5 5.786h3.42v-10.6H157.3v5.67h-.031l-3.325-5.67h-3.593v10.6zm12.313 0h3.515v-3.131l.976-.995 2.812 4.126h4.377l-4.812-6.454 4.141-4.141h-4.331l-3.134 3.65h-.031v-3.65h-3.514v10.6zm-24.718-20.9c-.3-2.657-2.029-4.186-5.16-4.2-3.516 0-5.786 2.212-5.786 5.552 0 3.13 2.093 5.55 5.786 5.55 3.34 0 5.208-2.272 5.208-4.409h-3.452c-.206.995-.669 1.768-1.853 1.768-1.647 0-2.175-1.485-2.175-2.908s.528-2.908 2.175-2.908a1.765 1.765 0 0 1 1.836 1.557h3.42zm1.084 1.351a5.79 5.79 0 0 0 11.57 0 5.79 5.79 0 0 0-11.57 0zm3.517 0c0-2.361 1.371-2.908 2.267-2.908s2.27.547 2.27 2.908-1.376 2.908-2.27 2.908-2.267-.548-2.267-2.906zm9.577 5.3h3.323v-6.8h.034l1.979 6.8h2.621l1.983-6.8h.031v6.8h3.323v-10.6h-5l-1.63 6.231h-.034l-1.628-6.231h-5v10.6zm15.282 0h3.321v-6.8h.032l1.982 6.8h2.621l1.981-6.8h.031v6.8h3.327v-10.6h-5l-1.631 6.231h-.033l-1.636-6.228h-5v10.6zm15.285 0h9.621v-2.717h-6.1v-1.32h5.385v-2.523h-5.385V16.71h5.928v-2.716h-9.449v10.6zm11.392 0h3.518v-3.7h1.872c1.39 0 1.486 1.053 1.58 2.063a7.22 7.22 0 0 0 .288 1.634h3.515a6.557 6.557 0 0 1-.382-2.272 2.874 2.874 0 0 0-1.676-2.641 2.7 2.7 0 0 0 1.71-2.657c0-2-1.727-3.027-3.725-3.027h-6.695v10.6zm3.515-8.073h1.647c1.341 0 1.741.386 1.741 1.053 0 .949-.894 1.053-1.55 1.053H197.6v-2.107zm18.974 1.424c-.3-2.657-2.031-4.186-5.162-4.2-3.515 0-5.784 2.212-5.784 5.552 0 3.13 2.093 5.55 5.784 5.55 3.34 0 5.21-2.272 5.21-4.409h-3.451c-.208.995-.672 1.768-1.852 1.768-1.649 0-2.174-1.485-2.174-2.908s.526-2.908 2.174-2.908a1.766 1.766 0 0 1 1.835 1.557h3.42zm1.595 6.649h3.515v-10.6h-3.515zm9.183-3.785l1.1-3.265h.032l1.022 3.265zm-4.812 3.784h3.531l.513-1.515h3.626l.478 1.515h3.645l-4.156-10.6h-3.435l-4.2 10.6zm12.68 0h8.565v-2.716h-5.046v-7.88h-3.519v10.6zM127 10.847h3.323V5.059h.032l3.5 5.789h3.418V.252h-3.323V5.92h-.032L130.6.252H127zm15.98-3.785l1.1-3.263h.033l1.023 3.263zm-4.81 3.785h3.53l.511-1.514h3.626l.479 1.514h3.643L145.808.252h-3.435l-4.2 10.6zm14.055 0h3.516v-7.88h3.2V.252h-9.911v2.716h3.2v7.88zm7.84 0h3.515V.252h-3.515zm5.029-5.3a5.789 5.789 0 0 0 11.569 0 5.789 5.789 0 0 0-11.569 0zm3.517 0c0-2.359 1.374-2.908 2.266-2.908s2.271.55 2.271 2.908-1.374 2.908-2.271 2.908-2.266-.546-2.266-2.905zm9.592 5.3h3.323V5.059h.032l3.5 5.789h3.421V.252h-3.323V5.92h-.034L181.8.252h-3.6zm15.979-3.785l1.1-3.263h.034l1.023 3.263zm-4.809 3.785h3.532l.509-1.514h3.63l.478 1.514h3.643L197.011.252h-3.437l-4.2 10.6zm12.68 0h8.563V8.131h-5.048V.252h-3.515zm-70.53 32.04h-1.682v4.42c0 .641-.218.865-.606.865a.6.6 0 0 1-.653-.677v-.613H127v.286c0 1.477.554 2.49 2.262 2.49a1.987 1.987 0 0 0 2.262-2.238v-4.532zm3.576 1.84h.017l.715 2.321h-1.466zm-3.257 4.792h1.727l.407-1.189h2.253l.4 1.189h1.753l-2.412-6.632h-1.71zm7.105 0h1.582v-5.034h.017l1.359 5.034h1.284l1.357-5.034h.018v5.035h1.582v-6.632h-2.476l-1.114 4.42h-.017l-1.113-4.42h-2.478v6.632zm11.035-4.792H150l.716 2.321h-1.465zm-3.257 4.792h1.727l.408-1.189h2.251l.4 1.189h1.755l-2.418-6.632h-1.708zm7.1 0h1.682v-6.631h-1.682zm8.792-4.263a2.779 2.779 0 0 0-2.947-2.508 3.464 3.464 0 0 0 0 6.91 2.75 2.75 0 0 0 2.946-2.711h-1.68a1.211 1.211 0 0 1-1.3 1.225c-1.086 0-1.5-.985-1.5-1.969s.415-1.968 1.5-1.968a1.177 1.177 0 0 1 1.3 1.021h1.679zm3.331-.528h.021l.713 2.321h-1.464zM162.7 49.52h1.731l.407-1.189h2.251l.4 1.189h1.757l-2.416-6.632h-1.708L162.7 49.52zm9.741 0h4.694v-1.487h-3.012v-5.145h-1.682v6.632zm5.422 0h1.682v-6.632h-1.682zm2.9 0h1.582v-5.035h.018l1.357 5.034H185l1.357-5.034h.019v5.035h1.582v-6.632h-2.478l-1.113 4.42h-.017l-1.114-4.42h-2.477v6.632zm8.432 0h1.682v-6.632h-1.682zm7.892-6.632h-5.534v1.487h1.925v5.145h1.68v-5.145h1.929v-1.487zm.682 6.632H203v-1.487h-3.555V46.77h3.165v-1.338h-3.165v-1.16h3.464v-1.384h-5.147v6.632zm6.283 0h2.776c1.963 0 3.166-1.172 3.166-3.344a2.97 2.97 0 0 0-3.166-3.289h-2.776zm1.682-5.145h.8a1.589 1.589 0 0 1 1.78 1.792c0 1.328-.505 1.838-1.78 1.867h-.8v-3.659z" class="cls-3" data-name="Path 3" transform="translate(-30.052)"/>
    </g>
</svg>
